<svg id="Layer_1" viewBox="0 0 128 128" xmlns="http://www.w3.org/2000/svg" data-name="Layer 1"><path d="m103 0h-72a5.97939 5.97939 0 0 0 -6 5.94v72.06h-4a2.00587 2.00587 0 0 0 -2 2v38a2.00591 2.00591 0 0 0 2 2h4v2.06a5.97943 5.97943 0 0 0 6 5.94h51.08a1.975 1.975 0 0 0 1.42-.6l24.92-25.25a1.99219 1.99219 0 0 0 .58-1.4v-94.81a5.97939 5.97939 0 0 0 -6-5.94zm-80 116v-34h48v34zm62 4.19v-16.29a1.80719 1.80719 0 0 1 1.7-1.9h16.25zm20-22.19h-18.3a5.8068 5.8068 0 0 0 -5.7 5.9v20.1h-50a1.97454 1.97454 0 0 1 -2-1.94v-2.06h44a2.00591 2.00591 0 0 0 2-2v-38a2.00587 2.00587 0 0 0 -2-2h-44v-72.06a1.97454 1.97454 0 0 1 2-1.94h72a1.97454 1.97454 0 0 1 2 1.94z" fill="#2d4356"/><path d="m102.95 102-17.95 18.19v-16.29a1.80719 1.80719 0 0 1 1.7-1.9z" fill="#81d9e3"/><path d="m103 4h-72a1.97454 1.97454 0 0 0 -2 1.94v72.06h44a2.00587 2.00587 0 0 1 2 2v38a2.00591 2.00591 0 0 1 -2 2h-44v2.06a1.97454 1.97454 0 0 0 2 1.94h50v-20.1a5.8068 5.8068 0 0 1 5.7-5.9h18.3v-92.06a1.97454 1.97454 0 0 0 -2-1.94zm-26 60.31a1.99993 1.99993 0 0 1 -1.11 1.79l-8 4a1.99083 1.99083 0 0 1 -1.78 0l-8-4a1.99993 1.99993 0 0 1 -1.11-1.79v-11.04a1.99947 1.99947 0 0 1 2-2h16a1.99947 1.99947 0 0 1 2 2z" fill="#e1ebf4"/><path d="m23 82h48v34h-48z" fill="#81d9e3"/><g fill="#2d4356"><path d="m36 98.56543a2.0001 2.0001 0 0 0 -2 2v2.43457h-2v-8h3.46875a2 2 0 0 0 0-4h-5.46875a2.0001 2.0001 0 0 0 -2 2v12a2.0001 2.0001 0 0 0 2 2h6a2.0001 2.0001 0 0 0 2-2v-4.43457a2.0001 2.0001 0 0 0 -2-2z"/><path d="m46 103h-1.22559l3.123-9.36768a2.00052 2.00052 0 0 0 -1.89741-2.63232h-4a2 2 0 0 0 0 4h1.22559l-3.123 9.36768a2.00052 2.00052 0 0 0 1.89741 2.63232h4a2 2 0 0 0 0-4z"/><path d="m52 91a2.0001 2.0001 0 0 0 -2 2v12a2 2 0 0 0 4 0v-12a2.0001 2.0001 0 0 0 -2-2z"/><path d="m64 91h-6a2.0001 2.0001 0 0 0 -2 2v12a2 2 0 0 0 4 0v-3.56543h4a2.0001 2.0001 0 0 0 2-2v-6.43457a2.0001 2.0001 0 0 0 -2-2zm-2 6.43457h-2v-2.43457h2z"/><path d="m75 15.6875h-6a2 2 0 1 0 0 4h6a2 2 0 1 0 0-4z"/><path d="m59 23.6875h6a2 2 0 1 0 0-4h-6a2 2 0 1 0 0 4z"/><path d="m69 11.6875h6a2 2 0 1 0 0-4h-6a2 2 0 1 0 0 4z"/><path d="m59 15.6875h6a2 2 0 1 0 0-4h-6a2 2 0 1 0 0 4z"/><path d="m75 23.6875h-6a2 2 0 1 0 0 4h6a2 2 0 1 0 0-4z"/><path d="m59 31.6875h6a2 2 0 1 0 0-4h-6a2 2 0 1 0 0 4z"/><path d="m75 31.6875h-6a2 2 0 1 0 0 4h6a2 2 0 1 0 0-4z"/><path d="m59 39.6875h6a2 2 0 1 0 0-4h-6a2 2 0 1 0 0 4z"/><path d="m75 39.6875h-6a2 2 0 1 0 0 4h6a2 2 0 1 0 0-4z"/><path d="m59 47.6875h6a2 2 0 1 0 0-4h-6a2 2 0 1 0 0 4z"/><path d="m75 51.27h-16a1.99947 1.99947 0 0 0 -2 2v11.04a1.99993 1.99993 0 0 0 1.11 1.79l8 4a1.99083 1.99083 0 0 0 1.78 0l8-4a1.99993 1.99993 0 0 0 1.11-1.79v-11.04a1.99947 1.99947 0 0 0 -2-2zm-2 11.81-6 3-6-3v-7.81h12z"/></g><path d="m73 55.27v7.81l-6 3-6-3v-7.81z" fill="#81d9e3"/><path d="m105 5.94v2a1.97454 1.97454 0 0 0 -2-1.94h-72a1.97454 1.97454 0 0 0 -2 1.94v-2a1.97454 1.97454 0 0 1 2-1.94h72a1.97454 1.97454 0 0 1 2 1.94z" fill="#fff" opacity=".5"/><path d="m23 82h48v2h-48z" fill="#e8fbfc" opacity=".4"/><path d="m102.95 102-1.97 2h-14.28a1.80721 1.80721 0 0 0 -1.7 1.9v-2a1.80721 1.80721 0 0 1 1.7-1.9z" fill="#e8fbfc" opacity=".4"/><path d="m23 114h48v2h-48z" fill="#0f423c" opacity=".3"/><path d="m81 122v2h-50a1.97454 1.97454 0 0 1 -2-1.94v-2a1.97454 1.97454 0 0 0 2 1.94z" fill="#9fa5aa" opacity=".5"/><path d="m61 55.27h12v2h-12z" fill="#e8fbfc" opacity=".4"/><path d="m73 61.08v2l-6 3-6-3v-2l6 3z" fill="#0f423c" opacity=".3"/></svg>