<svg height="512" viewBox="0 0 128 128" width="512" xmlns="http://www.w3.org/2000/svg"><g id="Filled_outline" data-name="Filled outline"><g id="Color"><path d="m1.5 35.453v82.047a9 9 0 0 0 9 9h85a9 9 0 0 0 9-9v-107a9 9 0 0 0 -9-9h-60.213a9 9 0 0 0 -6.387 2.657l-24.785 24.954a9 9 0 0 0 -2.615 6.342z" fill="#eee"/><path d="m31.5 2.34v20.16a9 9 0 0 1 -9 9h-20.08a9.188 9.188 0 0 1 1.69-2.39l24.79-24.95a8.847 8.847 0 0 1 2.6-1.82z" fill="#e0e0e0"/><rect fill="#ffc107" height="44" rx="6" width="48" x="78.5" y="82.5"/><path d="m84.5 82.5h6.68c0-2.149 0-4.735.008-5.216.135-15.471 22.256-15.8 22.621-.393.011.525.012 3.327.01 5.609h6.681a6.032 6.032 0 0 1 1.319.15c0-2.369 0-5.332-.012-5.936-.8-25.723-38.116-25.349-38.617.433-.01.521-.011 3.263-.01 5.5a6.041 6.041 0 0 1 1.32-.147z" fill="#e0e0e0"/><path d="m108.572 112.412-2.041-10.2a3.6 3.6 0 0 1 .351-2.255 5.1 5.1 0 1 0 -8.764 0 3.6 3.6 0 0 1 .351 2.254l-2.041 10.2a3 3 0 0 0 2.942 3.589h6.26a3 3 0 0 0 2.942-3.588z" fill="#ffa000"/></g><g id="Outline"><path d="m51.5 30a1.5 1.5 0 0 0 1.5-1.5v-13a1.5 1.5 0 0 0 -3 0v13a1.5 1.5 0 0 0 1.5 1.5z"/><path d="m32 70a6.006 6.006 0 0 0 -6 6v4a6 6 0 0 0 12 0v-4a6.006 6.006 0 0 0 -6-6zm3 10a3 3 0 0 1 -6 0v-4a3 3 0 0 1 6 0z"/><path d="m91.5 30a1.5 1.5 0 0 0 1.5-1.5v-13a1.5 1.5 0 0 0 -3 0v13a1.5 1.5 0 0 0 1.5 1.5z"/><path d="m73 30a6.006 6.006 0 0 0 6-6v-4a6 6 0 0 0 -12 0v4a6.006 6.006 0 0 0 6 6zm-3-10a3 3 0 0 1 6 0v4a3 3 0 0 1 -6 0z"/><path d="m53 84.5v-13a1.5 1.5 0 0 0 -3 0v13a1.5 1.5 0 0 0 3 0z"/><path d="m79 80v-4a6 6 0 0 0 -12 0v4a6 6 0 0 0 12 0zm-3 0a3 3 0 0 1 -6 0v-4a3 3 0 0 1 6 0z"/><path d="m16 84.5v-13a1.5 1.5 0 0 0 -3 0v13a1.5 1.5 0 0 0 3 0z"/><path d="m31.5 58a1.5 1.5 0 0 0 1.5-1.5v-13a1.5 1.5 0 0 0 -3 0v13a1.5 1.5 0 0 0 1.5 1.5z"/><path d="m15 42a6.006 6.006 0 0 0 -6 6v4a6 6 0 0 0 12 0v-4a6.006 6.006 0 0 0 -6-6zm3 10a3 3 0 0 1 -6 0v-4a3 3 0 0 1 6 0z"/><path d="m71 43.5v13a1.5 1.5 0 0 0 3 0v-13a1.5 1.5 0 0 0 -3 0z"/><path d="m51 42a6.006 6.006 0 0 0 -6 6v4a6 6 0 0 0 12 0v-4a6.006 6.006 0 0 0 -6-6zm3 10a3 3 0 0 1 -6 0v-4a3 3 0 0 1 6 0z"/><path d="m92 58a6.006 6.006 0 0 0 6-6v-4a6 6 0 0 0 -12 0v4a6.006 6.006 0 0 0 6 6zm-3-10a3 3 0 0 1 6 0v4a3 3 0 0 1 -6 0z"/><path d="m31.5 98a1.5 1.5 0 0 0 -1.5 1.5v13a1.5 1.5 0 0 0 3 0v-13a1.5 1.5 0 0 0 -1.5-1.5z"/><path d="m15 98a6.006 6.006 0 0 0 -6 6v4a6 6 0 0 0 12 0v-4a6.006 6.006 0 0 0 -6-6zm3 10a3 3 0 0 1 -6 0v-4a3 3 0 0 1 6 0z"/><path d="m72.5 98a1.5 1.5 0 0 0 -1.5 1.5v13a1.5 1.5 0 0 0 3 0v-13a1.5 1.5 0 0 0 -1.5-1.5z"/><path d="m51 98a6.006 6.006 0 0 0 -6 6v4a6 6 0 0 0 12 0v-4a6.006 6.006 0 0 0 -6-6zm3 10a3 3 0 0 1 -6 0v-4a3 3 0 0 1 6 0z"/><path d="m123.32 81.555c0-2.113 0-4.349-.014-4.887-.386-12.498-8.692-18.956-17.306-20.288v-45.88a10.512 10.512 0 0 0 -10.5-10.5h-60.213a10.571 10.571 0 0 0 -7.449 3.1l-24.787 24.954a10.431 10.431 0 0 0 -3.051 7.4v82.046a10.512 10.512 0 0 0 10.5 10.5h110a7.508 7.508 0 0 0 7.5-7.5v-32a7.508 7.508 0 0 0 -4.68-6.945zm-3.013-4.808c.01.436.013 2.262.013 4.253h-5c0-1.885 0-3.725-.012-4.145-.642-17.655-25.42-16.741-25.62.405-.007.374-.009 2.016-.009 3.74h-5c0-1.76 0-3.433.009-3.824.582-23.853 34.681-24.295 35.619-.429zm-8 .176c.009.411.011 2.22.011 4.077h-6.318v-13.436c3.4 1.158 6.186 4.168 6.309 9.359zm-9.307-9.899v13.976h-10.321c0-1.7 0-3.324.009-3.7.093-7.221 5.369-10.458 10.312-10.276zm-73.034-61.81.034-.031v17.317a7.508 7.508 0 0 1 -7.5 7.5h-17.154zm48.548 119.786h-68.014a7.508 7.508 0 0 1 -7.5-7.5v-82.046a7.489 7.489 0 0 1 .418-2.454h19.082a10.512 10.512 0 0 0 10.5-10.5v-19.134a7.465 7.465 0 0 1 2.287-.366h60.213a7.508 7.508 0 0 1 7.5 7.5v45.623c-10.084-.159-20.994 6.423-21.311 21-.007.44-.009 2.462-.009 4.433a7.508 7.508 0 0 0 -4.68 6.944v32a7.452 7.452 0 0 0 1.514 4.5zm46.486-4.5a4.505 4.505 0 0 1 -4.5 4.5h-36a4.505 4.505 0 0 1 -4.5-4.5v-32a4.505 4.505 0 0 1 4.5-4.5h36a4.505 4.505 0 0 1 4.5 4.5z"/><path d="m108 101.915a2.268 2.268 0 0 1 .15-1.163c2.681-4-.8-10.228-5.652-10.015-4.892-.172-8.321 5.968-5.652 10.015a2.268 2.268 0 0 1 .15 1.163l-2.04 10.2a4.5 4.5 0 0 0 4.414 5.385h6.26a4.5 4.5 0 0 0 4.412-5.382zm-1.212 12.036a1.5 1.5 0 0 1 -1.16.549h-6.258a1.5 1.5 0 0 1 -1.471-1.794l2.041-10.2a5.081 5.081 0 0 0 -.551-3.346c-1.407-2.1.544-5.55 3.111-5.42 2.567-.131 4.518 3.32 3.112 5.42a5.069 5.069 0 0 0 -.551 3.346l2.04 10.2a1.5 1.5 0 0 1 -.311 1.245z"/></g></g></svg>