<svg id="Layer_1" viewBox="0 0 512 512" xmlns="http://www.w3.org/2000/svg" data-name="Layer 1"><path d="m478 252a8 8 0 0 1 16 0c0 131.442-106.558 238-238 238s-238-106.558-238-238a237.424 237.424 0 0 1 51.61-148l-41.548 11.135a7.989 7.989 0 1 1 -4.125-15.435l66.94-17.937a8 8 0 0 1 10.489 7.605v59.322a8 8 0 0 1 -16 0v-38.719a220.776 220.776 0 0 0 -51.366 142.029c0 122.608 99.392 222 222 222s222-99.392 222-222z" fill="#84aa59" fill-rule="evenodd"/><circle cx="256" cy="252" fill="#88d5e8" r="163.215" transform="matrix(.707 -.707 .707 .707 -103.21 254.828)"/><path d="m419.215 244.031a7.969 7.969 0 1 1 0 15.937h-63.106c-.872 32.8-7.1 63.226-17.179 88.634a198.187 198.187 0 0 1 33.762 14.218 7.984 7.984 0 0 1 -7.562 14.063 184.085 184.085 0 0 0 -32.724-13.613c-39.72 79.965-113.083 79.952-152.812 0a184.054 184.054 0 0 0 -32.724 13.613 7.984 7.984 0 0 1 -7.562-14.063 198.153 198.153 0 0 1 33.762-14.22c-10.082-25.407-16.307-55.836-17.18-88.633h-63.1a7.969 7.969 0 1 1 0-15.938h63.1c.872-32.8 7.1-63.23 17.182-88.639a198.13 198.13 0 0 1 -33.764-14.219 7.983 7.983 0 0 1 7.562-14.062 184.106 184.106 0 0 0 32.73 13.615c39.723-79.955 113.079-79.948 152.807 0a184.086 184.086 0 0 0 32.727-13.613 7.983 7.983 0 0 1 7.562 14.062 198.13 198.13 0 0 1 -33.764 14.219c10.083 25.408 16.309 55.839 17.181 88.639zm-79.109 15.937h-76.137v76.356a278.959 278.959 0 0 1 59.554 7.907c9.691-23.843 15.71-52.8 16.583-84.263zm-23.391 99.032a263.523 263.523 0 0 0 -52.746-6.669v54.169c21.292-3.8 39.66-22.408 52.746-47.507zm-68.684 47.5v-54.173a263.6 263.6 0 0 0 -52.746 6.673c13.086 25.1 31.453 43.7 52.746 47.508zm-59.555-62.273a278.977 278.977 0 0 1 59.555-7.907v-76.351h-76.137c.873 31.463 6.891 60.419 16.582 84.262zm-16.582-100.2h76.137v-76.357a278.859 278.859 0 0 1 -59.552-7.907c-9.692 23.844-15.712 52.8-16.585 84.268zm23.393-99.027a263.658 263.658 0 0 0 52.744 6.668v-54.168c-21.293 3.8-39.65 22.4-52.744 47.5zm68.681-47.5v54.171a263.64 263.64 0 0 0 52.744-6.671c-13.09-25.1-31.453-43.7-52.744-47.5zm59.553 62.267a278.941 278.941 0 0 1 -59.553 7.907v76.361h76.138c-.873-31.471-6.893-60.428-16.585-84.272z" fill="#e0f0fe" fill-rule="evenodd"/><path d="m279.846 45.806a81.841 81.841 0 0 1 115.471.06c31.738 31.738 31.867 83.8 0 115.411l-57.736 57.265-57.735-57.325c-31.846-31.625-31.739-83.673 0-115.411z" fill="#e66f62" fill-rule="evenodd"/><circle cx="337.581" cy="103.541" fill="#e0f0fe" r="33.35"/></svg>