<svg id="Capa_1" enable-background="new 0 0 512 512" height="512" viewBox="0 0 512 512" width="512" xmlns="http://www.w3.org/2000/svg"><g><g><g><path d="m494.5 487.709h-176.84c-5.523 0-10-4.477-10-10v-45.239c0-5.523 4.477-10 10-10h176.84c5.523 0 10 4.477 10 10v45.238c0 5.524-4.477 10.001-10 10.001z" fill="#ffd15b"/></g><g><path d="m494.5 354.982h-176.84c-5.523 0-10-4.477-10-10v-45.238c0-5.523 4.477-10 10-10h176.84c5.523 0 10 4.477 10 10v45.238c0 5.523-4.477 10-10 10z" fill="#05e39c"/></g><g><g><g><g><path d="m494.5 89.53h-176.84c-5.523 0-10-4.477-10-10v-45.239c0-5.523 4.477-10 10-10h176.84c5.523 0 10 4.477 10 10v45.239c0 5.522-4.477 10-10 10z" fill="#fd8087"/></g><g><path d="m494.5 24.291h-41.66c5.523 0 10 4.477 10 10v45.239c0 5.523-4.477 10-10 10h41.66c5.523 0 10-4.477 10-10v-45.239c0-5.523-4.477-10-10-10z" fill="#fe646f"/></g></g><g><g><path d="m494.5 222.256h-176.84c-5.523 0-10-4.477-10-10v-45.238c0-5.523 4.477-10 10-10h176.84c5.523 0 10 4.477 10 10v45.238c0 5.523-4.477 10-10 10z" fill="#978ecb"/></g><g><path d="m494.5 157.018h-41.66c5.523 0 10 4.477 10 10v45.238c0 5.523-4.477 10-10 10h41.66c5.523 0 10-4.477 10-10v-45.238c0-5.523-4.477-10-10-10z" fill="#8379c1"/></g><g><path d="m494.5 289.744h-41.66c5.523 0 10 4.477 10 10v45.238c0 5.523-4.477 10-10 10h41.66c5.523 0 10-4.477 10-10v-45.238c0-5.523-4.477-10-10-10z" fill="#0ed290"/></g><g><path d="m494.5 422.47h-41.66c5.523 0 10 4.477 10 10v45.238c0 5.523-4.477 10-10 10h41.66c5.523 0 10-4.477 10-10v-45.238c0-5.522-4.477-10-10-10z" fill="#ffc344"/></g></g><g><circle cx="242.422" cy="56.91" fill="#fd8087" r="21.371"/></g><g><path d="m242.422 35.539c-3.427 0-6.654.827-9.525 2.261 7.016 3.504 11.846 10.735 11.846 19.11s-4.83 15.606-11.846 19.111c2.871 1.434 6.098 2.261 9.525 2.261 11.803 0 21.371-9.568 21.371-21.371s-9.568-21.372-21.371-21.372z" fill="#fe646f"/></g><g><circle cx="242.422" cy="189.637" fill="#978ecb" r="21.371"/></g><g><path d="m242.422 168.266c-3.427 0-6.654.827-9.525 2.261 7.016 3.504 11.846 10.735 11.846 19.11s-4.83 15.606-11.846 19.111c2.871 1.434 6.098 2.261 9.525 2.261 11.803 0 21.371-9.568 21.371-21.371s-9.568-21.372-21.371-21.372z" fill="#8379c1"/></g><g><circle cx="242.422" cy="322.363" fill="#05e39c" r="21.371"/></g><g><path d="m242.422 300.992c-3.427 0-6.654.827-9.525 2.261 7.016 3.504 11.846 10.735 11.846 19.11s-4.83 15.606-11.846 19.111c2.871 1.434 6.098 2.261 9.525 2.261 11.803 0 21.371-9.568 21.371-21.371s-9.568-21.372-21.371-21.372z" fill="#0ed290"/></g><g><circle cx="242.422" cy="455.09" fill="#ffd15b" r="21.371"/></g><g><path d="m242.422 433.718c-3.427 0-6.654.827-9.525 2.261 7.016 3.504 11.846 10.735 11.846 19.11s-4.83 15.606-11.846 19.111c2.871 1.434 6.098 2.261 9.525 2.261 11.803 0 21.371-9.568 21.371-21.371s-9.568-21.372-21.371-21.372z" fill="#ffc344"/></g></g><g><g><path d="m33 210.913v99.955c6.763-3.735 14.529-5.868 22.786-5.868 26.073 0 47.285 21.212 47.285 47.285 0 5.137-.834 10.08-2.356 14.715h78.754c6.141 0 11.119-4.978 11.119-11.119v-144.968z" fill="#f3f0f3"/></g><g><g><path d="m157.589 210.913v144.968c0 6.141-4.978 11.119-11.119 11.119h33c6.141 0 11.119-4.978 11.119-11.119v-144.968z" fill="#e2dee2"/></g></g><g><path d="m179.469 160.634h-135.35c-6.141 0-11.119 4.978-11.119 11.119v40.16h157.589v-40.16c0-6.141-4.979-11.119-11.12-11.119z" fill="#fd8087"/></g><g><path d="m179.469 160.634h-33c6.141 0 11.119 4.978 11.119 11.119v40.159h33v-40.159c.001-6.141-4.978-11.119-11.119-11.119z" fill="#fe646f"/></g></g><g><g><circle cx="55.786" cy="352.286" fill="#eaf6ff" r="48.286"/></g><g><path d="m55.786 304c-4.961 0-9.745.75-14.25 2.14 19.711 6.08 34.036 24.439 34.036 46.146s-14.325 40.065-34.036 46.146c4.505 1.389 9.289 2.14 14.25 2.14 26.667 0 48.286-21.618 48.286-48.286s-21.619-48.286-48.286-48.286z" fill="#d8ecfe"/></g></g></g><g><path d="m462.32 49.41h-112.48c-4.143 0-7.5 3.357-7.5 7.5s3.357 7.5 7.5 7.5h112.48c4.143 0 7.5-3.357 7.5-7.5s-3.357-7.5-7.5-7.5z"/><path d="m342.34 189.637c0 4.143 3.357 7.5 7.5 7.5h112.48c4.143 0 7.5-3.357 7.5-7.5s-3.357-7.5-7.5-7.5h-112.48c-4.143 0-7.5 3.357-7.5 7.5z"/><path d="m462.32 314.863h-112.48c-4.143 0-7.5 3.357-7.5 7.5s3.357 7.5 7.5 7.5h112.48c4.143 0 7.5-3.357 7.5-7.5s-3.357-7.5-7.5-7.5z"/><path d="m494.5 16.791h-176.84c-9.649 0-17.5 7.851-17.5 17.5v45.238c0 9.649 7.851 17.5 17.5 17.5h176.84c9.649 0 17.5-7.851 17.5-17.5v-45.238c0-9.649-7.851-17.5-17.5-17.5zm2.5 62.738c0 1.379-1.121 2.5-2.5 2.5h-176.84c-1.379 0-2.5-1.121-2.5-2.5v-45.238c0-1.379 1.121-2.5 2.5-2.5h176.84c1.379 0 2.5 1.121 2.5 2.5z"/><path d="m494.5 149.518h-45.5c-4.143 0-7.5 3.357-7.5 7.5s3.357 7.5 7.5 7.5h45.5c1.379 0 2.5 1.121 2.5 2.5v45.238c0 1.379-1.121 2.5-2.5 2.5h-176.84c-1.379 0-2.5-1.121-2.5-2.5v-45.238c0-1.379 1.121-2.5 2.5-2.5h96.34c4.143 0 7.5-3.357 7.5-7.5s-3.357-7.5-7.5-7.5h-96.34c-9.649 0-17.5 7.851-17.5 17.5v45.238c0 9.649 7.851 17.5 17.5 17.5h176.84c9.649 0 17.5-7.851 17.5-17.5v-45.238c0-9.65-7.851-17.5-17.5-17.5z"/><path d="m494.5 282.244h-176.84c-9.649 0-17.5 7.851-17.5 17.5v45.238c0 9.649 7.851 17.5 17.5 17.5h176.84c9.649 0 17.5-7.851 17.5-17.5v-45.238c0-9.649-7.851-17.5-17.5-17.5zm2.5 62.738c0 1.379-1.121 2.5-2.5 2.5h-176.84c-1.379 0-2.5-1.121-2.5-2.5v-45.238c0-1.379 1.121-2.5 2.5-2.5h176.84c1.379 0 2.5 1.121 2.5 2.5z"/><path d="m494.5 414.971h-112.5c-4.143 0-7.5 3.357-7.5 7.5s3.357 7.5 7.5 7.5h112.5c1.379 0 2.5 1.121 2.5 2.5v45.238c0 1.379-1.121 2.5-2.5 2.5h-176.84c-1.379 0-2.5-1.121-2.5-2.5v-45.238c0-1.379 1.121-2.5 2.5-2.5h29.34c4.143 0 7.5-3.357 7.5-7.5s-3.357-7.5-7.5-7.5h-29.34c-9.649 0-17.5 7.851-17.5 17.5v45.238c0 9.649 7.851 17.5 17.5 17.5h176.84c9.649 0 17.5-7.851 17.5-17.5v-45.238c0-9.65-7.851-17.5-17.5-17.5z"/><path d="m342.34 455.09c0 4.143 3.357 7.5 7.5 7.5h112.48c4.143 0 7.5-3.357 7.5-7.5s-3.357-7.5-7.5-7.5h-112.48c-4.143 0-7.5 3.357-7.5 7.5z"/><path d="m271.293 56.91c0-15.92-12.951-28.871-28.871-28.871s-28.871 12.951-28.871 28.871c0 13.326 9.077 24.566 21.371 27.877v76.972c-12.294 3.311-21.371 14.551-21.371 27.877s9.077 24.566 21.371 27.877v76.972c-12.294 3.311-21.371 14.551-21.371 27.877s9.077 24.566 21.371 27.877v76.972c-12.294 3.311-21.371 14.551-21.371 27.877 0 15.92 12.951 28.871 28.871 28.871s28.871-12.951 28.871-28.871c0-13.326-9.077-24.566-21.371-27.877v-76.971c12.294-3.311 21.371-14.551 21.371-27.877s-9.077-24.566-21.371-27.877v-76.972c12.294-3.311 21.371-14.551 21.371-27.877s-9.077-24.566-21.371-27.877v-76.973c12.294-3.311 21.371-14.551 21.371-27.877zm-42.742 0c0-7.648 6.223-13.871 13.871-13.871s13.871 6.223 13.871 13.871-6.223 13.871-13.871 13.871-13.871-6.222-13.871-13.871zm27.742 398.18c0 7.648-6.223 13.871-13.871 13.871s-13.871-6.223-13.871-13.871 6.223-13.871 13.871-13.871 13.871 6.222 13.871 13.871zm0-132.727c0 7.648-6.223 13.871-13.871 13.871s-13.871-6.223-13.871-13.871 6.223-13.871 13.871-13.871 13.871 6.223 13.871 13.871zm0-132.726c0 7.648-6.223 13.871-13.871 13.871s-13.871-6.223-13.871-13.871 6.223-13.871 13.871-13.871 13.871 6.222 13.871 13.871z"/><path d="m145.78 322.466c4.143 0 7.5-3.357 7.5-7.5v-59.904c0-4.143-3.357-7.5-7.5-7.5h-11.325c-4.143 0-7.5 3.357-7.5 7.5s3.357 7.5 7.5 7.5h3.825v52.404c0 4.142 3.358 7.5 7.5 7.5z"/><path d="m179.47 153.134h-16.4v-8.134c0-4.143-3.357-7.5-7.5-7.5s-7.5 3.357-7.5 7.5v8.134h-72.55v-8.134c0-4.143-3.357-7.5-7.5-7.5s-7.5 3.357-7.5 7.5v8.134h-16.4c-10.267 0-18.619 8.353-18.619 18.619v73.247c0 4.143 3.357 7.5 7.5 7.5s7.5-3.357 7.5-7.5v-25.587h142.589v136.468c0 1.996-1.623 3.619-3.619 3.619h-68.381c.307-2.364.482-4.769.482-7.215 0-11.276-3.373-21.773-9.148-30.558 9.78-2.556 17.02-11.466 17.02-22.036 0-11.112-8-20.393-18.543-22.381l14.372-17.487c1.842-2.241 2.227-5.343.987-7.966s-3.88-4.296-6.781-4.296h-31.67c-4.143 0-7.5 3.357-7.5 7.5s3.357 7.5 7.5 7.5h15.798l-14.048 17.093c-1.842 2.24-2.227 5.343-.987 7.966s3.88 4.296 6.781 4.296h11.316c4.287 0 7.774 3.488 7.774 7.775s-3.487 7.774-7.774 7.774h-7.71c-9.278-6.885-20.756-10.966-33.171-10.966-5.301 0-10.425.759-15.286 2.146v-18.645c0-4.143-3.357-7.5-7.5-7.5s-7.5 3.357-7.5 7.5v25.474c-15.333 9.953-25.502 27.212-25.502 46.811 0 30.761 25.025 55.786 55.786 55.786 22.867 0 42.555-13.836 51.158-33.571h72.525c10.267 0 18.619-8.353 18.619-18.619v-184.128c.001-10.267-8.352-18.619-18.618-18.619zm-123.684 239.937c-22.489 0-40.786-18.297-40.786-40.786s18.297-40.785 40.786-40.785 40.785 18.296 40.785 40.785-18.296 40.786-40.785 40.786zm127.303-188.659h-142.589v-32.659c0-1.996 1.624-3.619 3.619-3.619h16.4v8.134c0 4.143 3.357 7.5 7.5 7.5s7.5-3.357 7.5-7.5v-8.134h72.55v8.134c0 4.143 3.357 7.5 7.5 7.5s7.5-3.357 7.5-7.5v-8.134h16.4c1.996 0 3.619 1.623 3.619 3.619v32.659z"/><path d="m74.826 344.785h-11.54v-19.414c0-4.143-3.357-7.5-7.5-7.5s-7.5 3.357-7.5 7.5v26.914c0 4.143 3.357 7.5 7.5 7.5h19.04c4.143 0 7.5-3.357 7.5-7.5s-3.357-7.5-7.5-7.5z"/></g></g></g></svg>