<svg id="Layer_5" enable-background="new 0 0 64 64" height="512" viewBox="0 0 64 64" width="512" xmlns="http://www.w3.org/2000/svg"><g><g><path d="m5 25h42v17h-42z" fill="#f0bc5e"/></g><g><path d="m58 15h-4c-1.13 0-2.162.391-3 1.026v-12.026c0-1.654-1.346-3-3-3h-44c-1.654 0-3 1.346-3 3v39.22l7.006 15.014c.122 2.649 2.315 4.766 4.994 4.766h35c1.654 0 3-1.346 3-3v-3.763l2.658 5.317c.447.891 1.345 1.446 2.342 1.446s1.895-.555 2.342-1.447l4.658-9.317v-32.236c0-2.757-2.243-5-5-5zm-4 2h4c1.654 0 3 1.346 3 3v5h-10v-5c0-1.654 1.346-3 3-3zm5 34v-24h2v24zm-8-24h2v24h-2zm4 0h2v24h-2zm-46.178 28.255-4.182-8.964 8.72 6.709h-.36c-1.744 0-3.282.897-4.178 2.255zm40.178 4.745c0 .552-.448 1-1 1h-35c-1.654 0-3-1.346-3-3s1.346-3 3-3h3v-2.492l-13-10.002v-38.506c0-.552.448-1 1-1h44c.552 0 1 .448 1 1v16 32.236zm7.553.657c-.211.424-.895.423-1.105.001l-3.83-7.658h8.764z"/><path d="m5 23h42v-18h-42zm2-16h38v14h-38z"/><path d="m14 11h2v8h2v-8h2v-2h-6z"/><path d="m32 11h2v8h2v-8h2v-2h-6z"/><path d="m28.2 9.4-2.2 2.934-2.2-2.934-1.6 1.2 2.55 3.4-2.55 3.4 1.6 1.2 2.2-2.934 2.2 2.934 1.6-1.2-2.55-3.4 2.55-3.4z"/><path d="m22 53c-1.654 0-3 1.346-3 3s1.346 3 3 3 3-1.346 3-3-1.346-3-3-3zm0 4c-.552 0-1-.448-1-1s.448-1 1-1 1 .448 1 1-.448 1-1 1z"/><path d="m30 53c-1.654 0-3 1.346-3 3s1.346 3 3 3 3-1.346 3-3-1.346-3-3-3zm0 4c-.552 0-1-.448-1-1s.448-1 1-1 1 .448 1 1-.448 1-1 1z"/><path d="m38 53c-1.654 0-3 1.346-3 3s1.346 3 3 3 3-1.346 3-3-1.346-3-3-3zm0 4c-.552 0-1-.448-1-1s.448-1 1-1 1 .448 1 1-.448 1-1 1z"/><path d="m5 25h4v2h-4z"/><path d="m11 25h22v2h-22z"/><path d="m35 25h2v2h-2z"/><path d="m39 25h8v2h-8z"/><path d="m5 29h42v2h-42z"/><path d="m5 33h8v2h-8z"/><path d="m15 33h28v2h-28z"/><path d="m45 33h2v2h-2z"/><path d="m5 37h42v2h-42z"/><path d="m5 41h42v2h-42z"/><path d="m27 45h-8v6h8zm-2 4h-4v-2h4z"/><path d="m37 45h-8v6h8zm-2 4h-4v-2h4z"/><path d="m39 51h8v-6h-8zm2-4h4v2h-4z"/></g></g></svg>