<svg clip-rule="evenodd" fill-rule="evenodd" height="6.827in" image-rendering="optimizeQuality" shape-rendering="geometricPrecision" text-rendering="geometricPrecision" viewBox="0 0 6.82666 6.82666" width="6.827in" xmlns="http://www.w3.org/2000/svg"><g id="Layer_x0020_1"><path d="m0 0h6.827v6.827h-6.827z" fill="none"/><path d="m.853.853h5.12v5.12h-5.12z" fill="none"/><g id="_490557472" fill="#333" fill-rule="nonzero"><path id="_490558336" d="m4.69333 1.01333v.64h.53333v.21334h-.63999-.10667v-.10667-.74667z"/><path id="_490558312" d="m1.71852.906661h2.86815.0441654l.031252.031252.746665.746665.031252.031252v.0441654 2.66667.106669h-.106669-3.73333-.106669v-.106669-3.29481c0-.0620433.0252992-.118358.0660669-.159118.0407598-.0407677.0970748-.0660669.159118-.0660669zm2.82398.213339h-2.82398c-.00314567 0-.00609055.00137008-.00828346.00356299s-.00356299.0051378-.00356299.00828346v3.18815h3.51999v-2.51583l-.684161-.684161z"/><path id="_490557856" d="m2.24 2.61333h2.45333v.21334h-2.45333z"/><path id="_490557808" d="m2.24 3.35998h2.45333v.21334h-2.45333z"/><path id="_490558000" d="m1.12465 4.31999h4.57736c.0745827 0 .142449.0307795.191701.0803583.049126.0494528.079622.117461.079622.192063v1.05516c0 .0746024-.0305.142606-.079622.192059-.0492559.0495787-.117122.0803622-.191701.0803622h-4.57736c-.0745748 0-.142449-.0307835-.191705-.0803622-.049122-.0494449-.0796181-.117449-.0796181-.192059v-1.05516c0-.0746063.0304961-.14261.0796181-.192063.049248-.0495787.117122-.0803583.191705-.0803583zm4.57736.213339h-4.57736c-.0159724 0-.0304409.00651969-.0408701.0170197-.0105551.010626-.0171142.0255079-.0171142.042063v1.05516c0 .0165512.00655906.0314331.0171142.0420591.0104291.0105.0249055.0170236.0408701.0170236h4.57736c.0159646 0 .030437-.00652362.0408661-.0170236.0105591-.0106299.0171181-.0255118.0171181-.0420591v-1.05516c0-.0165512-.00655906-.0314331-.0171181-.042063-.0104291-.0104961-.0248937-.0170197-.0408661-.0170197z"/><path id="_490557568" d="m2.67116 5.48449v-.630268h-.225043v-.128421h.602886v.128421h-.224516v.630268zm.399571 0 .259315-.395858-.234937-.362831h.178941l.152268.243772.148909-.243772h.177528l-.235996.36848.259315.390209h-.184772l-.168165-.262315-.168697.262315zm.95476 0v-.630268h-.225043v-.128421h.602886v.128421h-.224516v.630268z"/></g><path d="m2.24 2.61333h2.45334v.213339h-2.45334zm0 .74665h2.45334v.213339h-2.45334zm-.533327.960008h3.51999v-2.45333h-.639996-.106669v-.106669-.639996h-2.76148c-.00314567 0-.00609055.00137008-.00828346.00356299s-.00356299.0051378-.00356299.00828346v3.18815z" fill="#ebe5df"/><path d="m4.69333 1.27083v.3825h.3825z" fill="#949494"/><path d="m5.33333 4.53333h-3.73333-.106669-.368677c-.0159724 0-.0304409.00651969-.0408701.0170197-.0105551.010626-.0171142.0255079-.0171142.042063v1.05516c0 .0165512.00655906.0314331.0171142.0420591.0104291.0105.0249055.0170236.0408701.0170236h4.57736c.0159646 0 .030437-.00652362.0408661-.0170236.0105591-.0106299.0171181-.0255118.0171181-.0420591v-1.05516c0-.0165512-.00655906-.0314331-.0171181-.042063-.0104291-.0104961-.0248937-.0170197-.0408661-.0170197h-.262012-.106669zm-2.66217.951157v-.630268h-.225043v-.128421h.602886v.128421h-.224516v.630268zm.399571 0 .259315-.395858-.234937-.362831h.178941l.152268.243772.148909-.243772h.177528l-.235996.36848.259315.390209h-.184772l-.168165-.262315-.168697.262315zm.95476 0v-.630268h-.225043v-.128421h.602886v.128421h-.224516v.630268z" fill="#f39cc3"/></g><path d="m0 0h6.827v6.827h-6.827z" fill="none"/></svg>