<svg id="Layer_1" enable-background="new 0 0 512 512" height="512" viewBox="0 0 512 512" width="512" xmlns="http://www.w3.org/2000/svg"><g clip-rule="evenodd" fill-rule="evenodd"><g><path d="m432.581 424.889-54.212-54.212c-1.526-1.526-2.199-3.581-2.022-5.574l.283-104.359h13.945l-.277 102.066 52.18 52.18zm-363.061-9.899 52.18-52.18-.277-102.066h13.945l.283 104.359c.178 1.993-.496 4.049-2.022 5.574l-54.212 54.212zm179.48 48.101v-90.073h14v90.073z" fill="#c7e0ec"/><path d="m380.301 125.271h-48.072c-.834-60.49-50.121-109.271-110.809-109.271-61.208 0-110.828 49.62-110.828 110.828 0 .292.009.583.011.874-41.081 9.621-71.912 46.673-71.912 90.577 0 51.155 41.854 93.008 93.008 93.008h248.602c51.155 0 93.008-41.854 93.008-93.008 0-51.154-41.853-93.008-93.008-93.008z" fill="#a4d4ff"/><g fill="#b3a4ee"><circle cx="256" cy="469.545" r="26.455"/><ellipse cx="437.53" cy="419.939" rx="26.455" ry="26.455" transform="matrix(.707 -.707 .707 .707 -168.792 432.378)"/><ellipse cx="74.47" cy="419.939" rx="26.455" ry="26.455" transform="matrix(.707 -.707 .707 .707 -275.13 175.655)"/></g></g><g><path d="m339.232 326.048c-17.543 0-26.345 21.253-13.941 33.657 2.285 2.285 2.285 5.991 0 8.276l-12.598 12.599c-2.285 2.285-5.991 2.285-8.276 0-12.404-12.404-33.657-3.602-33.657 13.941 0 3.233-2.621 5.852-5.852 5.852h-17.816c-3.231 0-5.852-2.619-5.852-5.852 0-17.565-21.238-26.361-33.657-13.941-2.285 2.285-5.991 2.285-8.276 0l-12.598-12.599c-2.285-2.285-2.285-5.991 0-8.276 12.404-12.404 3.602-33.657-13.941-33.657-3.233 0-5.852-2.621-5.852-5.852v-17.816c0-3.231 2.619-5.852 5.852-5.852 17.543 0 26.345-21.253 13.941-33.657-2.285-2.285-2.285-5.991 0-8.276l12.598-12.598c2.285-2.285 5.991-2.285 8.276 0 12.404 12.404 33.657 3.602 33.657-13.941 0-3.233 2.62-5.852 5.852-5.852h17.816c3.231 0 5.852 2.619 5.852 5.852 0 17.543 21.253 26.345 33.657 13.941 2.285-2.285 5.991-2.285 8.276 0l12.598 12.598c2.285 2.285 2.285 5.991 0 8.276-12.404 12.404-3.602 33.657 13.941 33.657 3.233 0 5.852 2.62 5.852 5.852v17.816c0 3.231-2.619 5.852-5.852 5.852zm-83.232-58.293c-24.043 0-43.534 19.491-43.534 43.534s19.491 43.534 43.534 43.534 43.534-19.491 43.534-43.534c0-24.044-19.491-43.534-43.534-43.534z" fill="#fdcd56"/><path d="m334.103 204.245-20.512 20.525c-.52.52-.708 1.224-.518 1.934l5.518 20.592c.19.71.706 1.226 1.416 1.416l20.592 5.518c.71.19 1.415.001 1.935-.519l20.509-20.522c1.156-1.157 3.128-.523 3.393 1.091 2.047 12.462-1.733 25.696-11.345 35.307-11.948 11.948-29.492 14.886-44.194 8.818-.764-.315-1.596-.15-2.18.435l-85.166 85.166c-.584.584-.75 1.416-.435 2.18 6.067 14.702 3.129 32.246-8.819 44.194-9.613 9.613-22.847 13.392-35.31 11.344-1.613-.265-2.247-2.236-1.092-3.392l20.511-20.525c.52-.52.708-1.224.518-1.934l-5.518-20.593c-.19-.71-.706-1.226-1.416-1.416l-20.592-5.517c-.71-.19-1.415-.001-1.935.519l-20.509 20.522c-1.156 1.156-3.128.523-3.393-1.091-2.048-12.462 1.732-25.696 11.344-35.307 11.948-11.948 29.492-14.886 44.194-8.819.764.315 1.596.15 2.18-.435l85.165-85.165c.584-.584.75-1.416.435-2.18-6.067-14.702-3.129-32.246 8.819-44.194 9.613-9.613 22.848-13.393 35.31-11.344 1.616.265 2.25 2.236 1.095 3.392z" fill="#636c77"/></g></g></svg>